#N canvas 276 70 993 485 10;
#X declare -lib mrpeach;
#N canvas 127 69 917 375 effects 0;
#X obj 100 100 obj/effect1;
#X obj 281 100 obj/effect3;
#X obj 100 190 obj/effect4;
#X obj 281 190 obj/effect2;
#X obj 281 145 obj/effect5;
#X obj 643 100 obj/effect6;
#X obj 462 100 obj/effect7;
#X obj 643 166 obj/effect8;
#X obj 462 166 obj/effect9;
#X coords 0 -1 1 1 723 155 2 100 100;
#X restore 96 -167 pd effects;
#N canvas 0 0 1366 685 convertersreceivers 0;
#X obj 193 -25 routeOSC /dac;
#X obj 534 -23 routeOSC /adc;
#X obj 24 2 routeOSC /connect;
#X obj 132 2 routeOSC /remove;
#X obj 24 21 s cdac;
#X obj 132 21 s rdac;
#X obj 306 2 routeOSC /r;
#X obj 234 2 routeOSC /l;
#X obj 234 21 s dacl;
#X obj 306 21 s dacr;
#X obj 297 -80 inlet;
#X obj 388 2 routeOSC /connect;
#X obj 496 2 routeOSC /remove;
#X obj 598 21 s adclv;
#X obj 598 2 routeOSC /l;
#X obj 670 21 s adcrv;
#X obj 670 2 routeOSC /r;
#X obj 388 21 s cadc;
#X obj 496 21 s radc;
#X connect 0 0 2 0;
#X connect 0 0 3 0;
#X connect 0 0 6 0;
#X connect 0 0 7 0;
#X connect 1 0 14 0;
#X connect 1 0 16 0;
#X connect 1 0 12 0;
#X connect 1 0 11 0;
#X connect 2 0 4 0;
#X connect 3 0 5 0;
#X connect 6 0 9 0;
#X connect 7 0 8 0;
#X connect 10 0 0 0;
#X connect 10 0 1 0;
#X connect 11 0 17 0;
#X connect 12 0 18 0;
#X connect 14 0 13 0;
#X connect 16 0 15 0;
#X restore 462 -278 pd convertersreceivers;
#N canvas 506 238 450 300 converters 0;
#X obj 101 100 obj/dac;
#X obj 248 100 obj/adc;
#X coords 0 -1 1 1 294 44 2 100 100;
#X restore 96 -10 pd converters;
#N canvas 506 238 450 300 oscs 0;
#X obj 100 100 obj/osc1;
#X obj 247 100 obj/osc2;
#X obj 394 100 obj/osc3;
#X obj 541 100 obj/osc4;
#X coords 0 -1 1 1 586 44 2 100 100;
#X restore 96 -259 pd oscs;
#N canvas 506 238 450 300 oscsreceivers 0;
#X obj 211 13 inlet;
#X obj 79 54 routeOSC /osc1;
#X obj 7 81 routeOSC /l;
#X obj 79 81 routeOSC /r;
#X obj 151 81 routeOSC /f;
#X obj 226 80 routeOSC /l;
#X obj 298 80 routeOSC /r;
#X obj 370 80 routeOSC /f;
#X obj 7 181 routeOSC /l;
#X obj 79 181 routeOSC /r;
#X obj 151 181 routeOSC /f;
#X obj 226 180 routeOSC /l;
#X obj 298 180 routeOSC /r;
#X obj 370 180 routeOSC /f;
#X obj 79 154 routeOSC /osc3;
#X obj 298 53 routeOSC /osc2;
#X obj 298 153 routeOSC /osc4;
#X obj 148 211 s osc3f;
#X obj 367 210 s osc4f;
#X obj 367 110 s osc2f;
#X obj 40 111 s osc1lv;
#X obj 94 111 s osc1rv;
#X obj 148 111 s osc1f;
#X obj 259 110 s osc2lv;
#X obj 313 110 s osc2rv;
#X obj 313 210 s osc4rv;
#X obj 259 210 s osc4lv;
#X obj 94 211 s osc3rv;
#X obj 40 211 s osc3lv;
#X connect 0 0 1 0;
#X connect 0 0 14 0;
#X connect 0 0 15 0;
#X connect 0 0 16 0;
#X connect 1 0 4 0;
#X connect 1 0 3 0;
#X connect 1 0 2 0;
#X connect 2 0 20 0;
#X connect 3 0 21 0;
#X connect 4 0 22 0;
#X connect 5 0 23 0;
#X connect 6 0 24 0;
#X connect 7 0 19 0;
#X connect 8 0 28 0;
#X connect 9 0 27 0;
#X connect 10 0 17 0;
#X connect 11 0 26 0;
#X connect 12 0 25 0;
#X connect 13 0 18 0;
#X connect 14 0 10 0;
#X connect 14 0 9 0;
#X connect 14 0 8 0;
#X connect 15 0 7 0;
#X connect 15 0 6 0;
#X connect 15 0 5 0;
#X connect 16 0 13 0;
#X connect 16 0 12 0;
#X connect 16 0 11 0;
#X restore 600 -278 pd oscsreceivers;
#X obj 282 -278 unpackOSC;
#X obj 96 -278 import mrpeach;
#N canvas 204 51 1126 643 effectsreceivers 0;
#X obj 106 -71 routeOSC /effect1;
#X obj -17 -48 routeOSC /connect;
#X obj 91 -48 routeOSC /remove;
#X obj -17 -29 s ceffect1;
#X obj 91 -29 s reffect1;
#X obj -15 16 routeOSC /connect;
#X obj 93 16 routeOSC /remove;
#X obj 115 -7 routeOSC /effect2;
#X obj 93 35 s reffect2;
#X obj -15 35 s ceffect2;
#X obj 267 16 routeOSC /r;
#X obj 195 16 routeOSC /l;
#X obj 265 -48 routeOSC /r;
#X obj 193 -48 routeOSC /l;
#X obj -14 82 routeOSC /connect;
#X obj 94 82 routeOSC /remove;
#X obj 347 -48 routeOSC /connect;
#X obj 455 -48 routeOSC /remove;
#X obj 629 -48 routeOSC /r;
#X obj 557 -48 routeOSC /l;
#X obj 268 82 routeOSC /r;
#X obj 196 82 routeOSC /l;
#X obj 109 59 routeOSC /effect3;
#X obj 477 -71 routeOSC /effect4;
#X obj 265 -29 s effect1rv;
#X obj 193 -29 s effect1lv;
#X obj 195 35 s effect2lv;
#X obj 267 35 s effect2rv;
#X obj 508 -106 inlet;
#X obj -14 101 s ceffect3;
#X obj 94 101 s reffect3;
#X obj 196 101 s effect3lv;
#X obj 268 101 s effect3rv;
#X obj 347 -29 s ceffect4;
#X obj 455 -29 s reffect4;
#X obj 557 -29 s effect4lv;
#X obj 629 -29 s effect4rv;
#X obj 349 16 routeOSC /connect;
#X obj 457 16 routeOSC /remove;
#X obj 631 16 routeOSC /r;
#X obj 559 16 routeOSC /l;
#X obj 350 82 routeOSC /connect;
#X obj 458 82 routeOSC /remove;
#X obj 632 82 routeOSC /r;
#X obj 560 82 routeOSC /l;
#X obj 479 -7 routeOSC /effect5;
#X obj 457 35 s reffect5;
#X obj 559 35 s effect5lv;
#X obj 631 35 s effect5rv;
#X obj 349 35 s ceffect5;
#X obj 350 101 s ceffect6;
#X obj 458 101 s reffect6;
#X obj 560 101 s effect6lv;
#X obj 632 101 s effect6rv;
#X obj 473 59 routeOSC /effect6;
#X obj 711 -48 routeOSC /connect;
#X obj 819 -48 routeOSC /remove;
#X obj 713 16 routeOSC /connect;
#X obj 821 16 routeOSC /remove;
#X obj 923 16 routeOSC /l;
#X obj 921 -48 routeOSC /l;
#X obj 714 82 routeOSC /connect;
#X obj 822 82 routeOSC /remove;
#X obj 924 82 routeOSC /l;
#X obj 834 -71 routeOSC /effect7;
#X obj 921 -29 s effect7lv;
#X obj 819 -29 s reffect7;
#X obj 711 -29 s ceffect7;
#X obj 995 16 routeOSC /r;
#X obj 993 -48 routeOSC /r;
#X obj 996 82 routeOSC /r;
#X obj 993 -29 s effect7rv;
#X obj 843 -7 routeOSC /effect8;
#X obj 995 35 s effect8rv;
#X obj 923 35 s effect8lv;
#X obj 821 35 s reffect8;
#X obj 713 35 s ceffect8;
#X obj 838 59 routeOSC /effect9;
#X obj 996 101 s effect9rv;
#X obj 924 101 s effect9lv;
#X obj 822 101 s reffect9;
#X obj 714 101 s ceffect9;
#X obj 159 216 routeOSC /a;
#X obj 231 216 routeOSC /b;
#X obj 303 216 routeOSC /c;
#X obj 375 216 routeOSC /d;
#X obj 447 216 routeOSC /e;
#X obj 529 216 routeOSC /a;
#X obj 601 216 routeOSC /b;
#X obj 673 216 routeOSC /c;
#X obj 755 216 routeOSC /a;
#X obj 827 216 routeOSC /b;
#X obj 159 266 routeOSC /a;
#X obj 231 266 routeOSC /b;
#X obj 303 266 routeOSC /c;
#X obj 385 266 routeOSC /a;
#X obj 457 266 routeOSC /b;
#X obj 539 266 routeOSC /a;
#X obj 611 266 routeOSC /b;
#X obj 683 266 routeOSC /c;
#X obj 755 266 routeOSC /d;
#X obj 159 316 routeOSC /a;
#X obj 231 316 routeOSC /b;
#X obj 303 316 routeOSC /c;
#X obj 375 316 routeOSC /d;
#X obj 457 316 routeOSC /a;
#X obj 529 316 routeOSC /b;
#X obj 611 316 routeOSC /a;
#X obj 683 316 routeOSC /b;
#X obj 755 316 routeOSC /c;
#X obj 827 316 routeOSC /d;
#X obj 189 240 s f1ra;
#X obj 249 240 s f1rb;
#X obj 309 240 s f1rc;
#X obj 369 240 s f1rd;
#X obj 429 240 s f1re;
#X obj 559 240 s f2ra;
#X obj 619 240 s f2rb;
#X obj 679 240 s f2rc;
#X obj 785 240 s f3ra;
#X obj 845 240 s f3rb;
#X obj 749 290 s f6rd;
#X obj 689 290 s f6rc;
#X obj 629 290 s f6rb;
#X obj 569 290 s f6ra;
#X obj 475 290 s f5rb;
#X obj 415 290 s f5ra;
#X obj 309 290 s f4rc;
#X obj 249 290 s f4rb;
#X obj 189 290 s f4ra;
#X obj 189 340 s f7ra;
#X obj 249 340 s f7rb;
#X obj 309 340 s f7rc;
#X obj 369 340 s f7rd;
#X obj 487 340 s f8ra;
#X obj 547 340 s f8rb;
#X obj 641 340 s f9ra;
#X obj 701 340 s f9rb;
#X obj 761 340 s f9rc;
#X obj 821 340 s f9rd;
#X connect 0 0 1 0;
#X connect 0 0 2 0;
#X connect 0 0 12 0;
#X connect 0 0 13 0;
#X connect 0 0 82 0;
#X connect 0 0 83 0;
#X connect 0 0 84 0;
#X connect 0 0 85 0;
#X connect 0 0 86 0;
#X connect 1 0 3 0;
#X connect 2 0 4 0;
#X connect 5 0 9 0;
#X connect 6 0 8 0;
#X connect 7 0 5 0;
#X connect 7 0 6 0;
#X connect 7 0 10 0;
#X connect 7 0 11 0;
#X connect 7 0 87 0;
#X connect 7 0 88 0;
#X connect 7 0 89 0;
#X connect 10 0 27 0;
#X connect 11 0 26 0;
#X connect 12 0 24 0;
#X connect 13 0 25 0;
#X connect 14 0 29 0;
#X connect 15 0 30 0;
#X connect 16 0 33 0;
#X connect 17 0 34 0;
#X connect 18 0 36 0;
#X connect 19 0 35 0;
#X connect 20 0 32 0;
#X connect 21 0 31 0;
#X connect 22 0 14 0;
#X connect 22 0 15 0;
#X connect 22 0 20 0;
#X connect 22 0 21 0;
#X connect 22 0 90 0;
#X connect 22 0 91 0;
#X connect 23 0 16 0;
#X connect 23 0 17 0;
#X connect 23 0 18 0;
#X connect 23 0 19 0;
#X connect 23 0 92 0;
#X connect 23 0 93 0;
#X connect 23 0 94 0;
#X connect 28 0 0 0;
#X connect 28 0 7 0;
#X connect 28 0 22 0;
#X connect 28 0 23 0;
#X connect 28 0 45 0;
#X connect 28 0 54 0;
#X connect 28 0 64 0;
#X connect 28 0 72 0;
#X connect 28 0 77 0;
#X connect 37 0 49 0;
#X connect 38 0 46 0;
#X connect 39 0 48 0;
#X connect 40 0 47 0;
#X connect 41 0 50 0;
#X connect 42 0 51 0;
#X connect 43 0 53 0;
#X connect 44 0 52 0;
#X connect 45 0 37 0;
#X connect 45 0 38 0;
#X connect 45 0 39 0;
#X connect 45 0 40 0;
#X connect 45 0 95 0;
#X connect 45 0 96 0;
#X connect 54 0 41 0;
#X connect 54 0 42 0;
#X connect 54 0 43 0;
#X connect 54 0 44 0;
#X connect 54 0 97 0;
#X connect 54 0 98 0;
#X connect 54 0 99 0;
#X connect 54 0 100 0;
#X connect 55 0 67 0;
#X connect 56 0 66 0;
#X connect 57 0 76 0;
#X connect 58 0 75 0;
#X connect 59 0 74 0;
#X connect 60 0 65 0;
#X connect 61 0 81 0;
#X connect 62 0 80 0;
#X connect 63 0 79 0;
#X connect 64 0 55 0;
#X connect 64 0 56 0;
#X connect 64 0 60 0;
#X connect 64 0 69 0;
#X connect 64 0 101 0;
#X connect 64 0 102 0;
#X connect 64 0 103 0;
#X connect 64 0 104 0;
#X connect 68 0 73 0;
#X connect 69 0 71 0;
#X connect 70 0 78 0;
#X connect 72 0 57 0;
#X connect 72 0 58 0;
#X connect 72 0 59 0;
#X connect 72 0 68 0;
#X connect 72 0 105 0;
#X connect 72 0 106 0;
#X connect 77 0 61 0;
#X connect 77 0 62 0;
#X connect 77 0 63 0;
#X connect 77 0 70 0;
#X connect 77 0 107 0;
#X connect 77 0 108 0;
#X connect 77 0 109 0;
#X connect 77 0 110 0;
#X connect 82 0 111 0;
#X connect 83 0 112 0;
#X connect 84 0 113 0;
#X connect 85 0 114 0;
#X connect 86 0 115 0;
#X connect 87 0 116 0;
#X connect 88 0 117 0;
#X connect 89 0 118 0;
#X connect 90 0 119 0;
#X connect 91 0 120 0;
#X connect 92 0 129 0;
#X connect 93 0 128 0;
#X connect 94 0 127 0;
#X connect 95 0 126 0;
#X connect 96 0 125 0;
#X connect 97 0 124 0;
#X connect 98 0 123 0;
#X connect 99 0 122 0;
#X connect 100 0 121 0;
#X connect 101 0 130 0;
#X connect 102 0 131 0;
#X connect 103 0 132 0;
#X connect 104 0 133 0;
#X connect 105 0 134 0;
#X connect 106 0 135 0;
#X connect 107 0 136 0;
#X connect 108 0 137 0;
#X connect 109 0 138 0;
#X connect 110 0 139 0;
#X restore 342 -278 pd effectsreceivers;
#N canvas 685 178 450 300 recorders 0;
#X obj 178 28 inlet;
#X obj 7 66 routeOSC /connect;
#X obj 115 66 routeOSC /remove;
#X obj 217 66 routeOSC /l;
#X obj 289 66 routeOSC /r;
#X obj 361 66 routeOSC /bang;
#X obj 7 85 s crecoder;
#X obj 115 85 s rrecoder;
#X obj 289 85 s recoderrv;
#X obj 217 85 s recoderlv;
#X obj 361 85 s recoderb;
#X connect 0 0 1 0;
#X connect 0 0 2 0;
#X connect 0 0 3 0;
#X connect 0 0 4 0;
#X connect 0 0 5 0;
#X connect 1 0 6 0;
#X connect 2 0 7 0;
#X connect 3 0 9 0;
#X connect 4 0 8 0;
#X connect 5 0 10 0;
#X restore 828 -278 pd recorders;
#N canvas 321 210 724 300 samplers 0;
#X obj 100 100 obj/sampler1;
#X obj 247 100 obj/sampler2;
#X obj 394 100 obj/sampler3;
#X obj 541 100 obj/sampler4;
#X coords 0 -1 1 1 586 44 2 100 100;
#X restore 96 -213 pd samplers;
#N canvas 31 106 654 490 samplersreceivers 0;
#X obj 251 80 inlet;
#X obj 94 116 routeOSC /sampler1;
#X obj 22 135 routeOSC /l;
#X obj 100 135 routeOSC /r;
#X obj 178 135 routeOSC /bang;
#X obj 178 154 s sampler1b;
#X obj 272 135 routeOSC /l;
#X obj 350 135 routeOSC /r;
#X obj 428 135 routeOSC /bang;
#X obj 23 202 routeOSC /l;
#X obj 101 202 routeOSC /r;
#X obj 179 202 routeOSC /bang;
#X obj 273 202 routeOSC /l;
#X obj 351 202 routeOSC /r;
#X obj 429 202 routeOSC /bang;
#X obj 344 116 routeOSC /sampler2;
#X obj 428 154 s sampler2b;
#X obj 350 154 s sampler2rv;
#X obj 272 154 s sampler2lv;
#X obj 100 154 s sampler1rv;
#X obj 22 154 s sampler1lv;
#X obj 345 183 routeOSC /sampler4;
#X obj 429 221 s sampler4b;
#X obj 351 221 s sampler4rv;
#X obj 273 221 s sampler4lv;
#X obj 179 221 s sampler3b;
#X obj 101 221 s sampler3rv;
#X obj 23 221 s sampler3lv;
#X obj 95 183 routeOSC /sampler3;
#X connect 0 0 1 0;
#X connect 0 0 15 0;
#X connect 0 0 21 0;
#X connect 0 0 28 0;
#X connect 1 0 2 0;
#X connect 1 0 3 0;
#X connect 1 0 4 0;
#X connect 2 0 20 0;
#X connect 3 0 19 0;
#X connect 4 0 5 0;
#X connect 6 0 18 0;
#X connect 7 0 17 0;
#X connect 8 0 16 0;
#X connect 9 0 27 0;
#X connect 10 0 26 0;
#X connect 11 0 25 0;
#X connect 12 0 24 0;
#X connect 13 0 23 0;
#X connect 14 0 22 0;
#X connect 15 0 6 0;
#X connect 15 0 7 0;
#X connect 15 0 8 0;
#X connect 21 0 12 0;
#X connect 21 0 13 0;
#X connect 21 0 14 0;
#X connect 28 0 9 0;
#X connect 28 0 10 0;
#X connect 28 0 11 0;
#X restore 702 -278 pd samplersreceivers;
#X obj 186 -278 udpreceive 1200;
#X obj 392 -10 obj/recoder;
#X connect 5 0 7 0;
#X connect 5 0 1 0;
#X connect 5 0 4 0;
#X connect 5 0 10 0;
#X connect 5 0 8 0;
#X connect 11 0 5 0;
